<svg viewBox="0 0 210 297" version="1.1" xmlns="http://www.w3.org/2000/svg">
<rect fill="#AAAAAA" x="0" y="0" width="210" height="297"/>
<svg x="0" y="0" width="65" height="65">
<svg viewBox="0 0 100 100">
<svg xmlns="http://www.w3.org/2000/svg" viewBox="0 0 100 100" width="100" height="100"><defs><linearGradient id="14937830074800692512" x1="-0.49376766372550857" x2="100.86553465330087" y1="-0.6583568849673468" y2="100.70094543205903" gradientTransform="matrix(0.01,0,0,0.01,0,0)"><stop stop-color="#5d3705" /><stop offset="1" stop-color="#ff6565" /></linearGradient></defs><g>
<rect fill="#ffffff" x="0" y="0" width="100" height="100"/>
<g>
	<g>
		<path d="M0,0L 100,0 L 100,100 L 0,100 L 0,0 Z" fill="url('#14937830074800692512')"/>
	</g>
</g></g></svg>
<svg x="18.274195" y="29">
<path d="M1.0967741 30.032255L10.129032 19.387093Q11.225805 18.096771,11.806452 17.032255Q12.387096 15.967739,12.387096 14.999997Q12.387096 13.516127,11.5 12.62903Q10.612904 11.741932,9.064516 11.741932Q7.4838705 11.741932,6.629032 12.693546Q5.7741933 13.645159,5.7741933 15.387094L1.0967741 15.387094Q1.0967741 13.096771,2.1290321 11.322578Q3.1612902 9.548384,5 8.548384Q6.8387094 7.5483837,9.129032 7.5483837Q11.419355 7.5483837,13.225805 8.499998Q15.032257 9.451611,16.048388 11.096771Q17.064516 12.741932,17.064516 14.741933Q17.064516 16.129028,16.629032 17.338707Q16.193548 18.548384,15.096773 19.935482L11.580645 24.516127Q10.483871 25.93548,9.580645 26.580643L17.193548 26.580643L17.193548 30.548384L1.0967741 30.548384L1.0967741 30.032255ZM23.903225 29.854836Q21.903225 28.677416,20.790321 26.677416Q19.677418 24.677416,19.677418 22.25806L19.677418 16.45161Q19.677418 14.032255,20.790321 12.032255Q21.903225 10.032255,23.903225 8.8548355Q25.903225 7.677416,28.45161 7.677416Q30.999998 7.677416,33 8.8548355Q35 10.032255,36.1129 12.032255Q37.225807 14.032255,37.225807 16.45161L37.225807 22.25806Q37.225807 24.677416,36.1129 26.677416Q35 28.677416,33 29.854836Q30.999998 31.032255,28.45161 31.032255Q25.903225 31.032255,23.903225 29.854836ZM25.403225 25.43548Q26.45161 26.838707,28.45161 26.838707Q30.45161 26.838707,31.499998 25.43548Q32.548386 24.032255,32.548386 21.741932L32.548386 16.999996Q32.548386 14.516127,31.532257 13.193546Q30.516129 11.870964,28.45161 11.870964Q26.387094 11.870964,25.370966 13.193546Q24.354837 14.516127,24.354837 16.999996L24.354837 21.741932Q24.354837 24.032255,25.403225 25.43548ZM41.45161 13.4193535L37.548386 13.4193535L37.548386 12.935482L41.45161 8.3870945L45.96774 8.3870945L45.96774 30.96774L41.45161 30.96774L41.45161 13.4193535ZM51.32258 30.1129Q49.54838 29.25806,48.59677 27.79032Q47.645157 26.322577,47.645157 24.483868Q47.645157 22.45161,48.532253 21.032255Q49.41935 19.6129,50.93548 18.80645Q49.645157 18.032255,48.96774 16.80645Q48.290318 15.580643,48.290318 13.967739Q48.290318 12.12903,49.12903 10.677416Q49.96774 9.225803,51.580643 8.3870945Q53.193542 7.5483837,55.451607 7.5483837Q57.741932 7.5483837,59.354836 8.3870945Q60.96774 9.225803,61.790318 10.677416Q62.6129 12.12903,62.6129 13.967739Q62.6129 15.612901,61.93548 16.838707Q61.25806 18.064514,59.96774 18.80645Q61.483868 19.645157,62.370964 21.048384Q63.25806 22.45161,63.25806 24.483868Q63.25806 26.322577,62.306446 27.79032Q61.354836 29.25806,59.59677 30.1129Q57.838707 30.96774,55.451607 30.96774Q53.09677 30.96774,51.32258 30.1129ZM53.064514 26.145159Q54.032253 27.096771,55.451607 27.096771Q56.870964 27.096771,57.838707 26.145159Q58.80645 25.193544,58.80645 23.903223Q58.80645 22.483868,57.854836 21.564514Q56.90322 20.645157,55.451607 20.645157Q53.999996 20.645157,53.04838 21.564514Q52.09677 22.483868,52.09677 23.903223Q52.09677 25.193544,53.064514 26.145159ZM53.40322 16.241932Q54.193542 17.064514,55.451607 17.064514Q56.709675 17.064514,57.516125 16.225803Q58.32258 15.387094,58.32258 14.096771Q58.32258 12.93548,57.516125 12.177416Q56.709675 11.419352,55.451607 11.419352Q54.193542 11.419352,53.40322 12.209675Q52.6129 12.999998,52.6129 14.161287Q52.6129 15.419352,53.40322 16.241932Z" fill="#000"/>
</svg>
<svg x="42.475807" y="10">
<path d="M0.53763443 1.3870969L1.7526882 1.3817205Q2.392473 1.3763442,2.7526882 1.6774194Q3.112903 1.9784946,3.112903 2.526882Q3.112903 2.967742,2.8790321 3.2419355Q2.6451612 3.5161293,2.2096775 3.6129034L3.2634408 5.1505375L2.376344 5.1505375L1.5752687 3.9569893Q1.5 3.8387098,1.4301075 3.6827958L1.2903225 3.6827958L1.2903225 5.1505375L0.53763443 5.1505375L0.53763443 1.3870969ZM1.7096775 3.0053763Q2.016129 3.0053763,2.1827958 2.8844087Q2.3494623 2.7634408,2.3494623 2.5322583Q2.3494623 2.3064518,2.1827958 2.185484Q2.016129 2.0645163,1.7096775 2.0645163L1.2903225 2.0645163L1.2903225 3.0053763L1.7096775 3.0053763ZM4.494624 1.3978496L5.247312 1.3978496L5.247312 5.16129L4.494624 5.16129L4.494624 1.3978496ZM7.502689 4.9005375Q7.053764 4.639785,6.7956996 4.193548Q6.537635 3.7473118,6.537635 3.2150538Q6.537635 2.6827958,6.7956996 2.2338712Q7.053764 1.7849464,7.502689 1.5215056Q7.9516134 1.2580647,8.5 1.2580647Q9.048388 1.2580647,9.494624 1.5215056Q9.940861 1.7849464,10.196238 2.2338712Q10.451613 2.6827958,10.451613 3.2150538Q10.451613 3.7473118,10.196238 4.193548Q9.940861 4.639785,9.494624 4.9005375Q9.048388 5.16129,8.5 5.16129Q7.9516134 5.16129,7.502689 4.9005375ZM7.462366 3.8440862Q7.6075277 4.129032,7.8763447 4.295699Q8.145162 4.462366,8.5 4.462366Q8.854839 4.462366,9.120968 4.295699Q9.387097 4.129032,9.529571 3.8440862Q9.672044 3.55914,9.672044 3.2150538Q9.672044 2.8709679,9.529571 2.5833335Q9.387097 2.2956991,9.120968 2.1263442Q8.854839 1.9569893,8.5 1.9569893Q8.145162 1.9569893,7.8763447 2.1263442Q7.6075277 2.2956991,7.462366 2.5833335Q7.317205 2.8709679,7.317205 3.2150538Q7.317205 3.55914,7.462366 3.8440862ZM12.73656 2.075269L11.661291 2.075269L11.661291 1.3978496L14.564516 1.3978496L14.564516 2.075269L13.489248 2.075269L13.489248 5.16129L12.73656 5.16129L12.73656 2.075269Z" fill="#000"/>
</svg>
<svg x="37.14785" y="82">
<path d="M1.233871 4.9005375Q0.7849462 4.639785,0.52688175 4.193548Q0.26881722 3.7473118,0.26881722 3.2150538Q0.26881722 2.6827958,0.52688175 2.2338712Q0.7849462 1.7849464,1.233871 1.5215056Q1.6827956 1.2580647,2.2311828 1.2580647Q2.77957 1.2580647,3.2258065 1.5215056Q3.672043 1.7849464,3.9274194 2.2338712Q4.1827955 2.6827958,4.1827955 3.2150538Q4.1827955 3.7473118,3.9274194 4.193548Q3.672043 4.639785,3.2258065 4.9005375Q2.77957 5.16129,2.2311828 5.16129Q1.6827956 5.16129,1.233871 4.9005375ZM1.1935483 3.8440862Q1.3387097 4.129032,1.6075269 4.295699Q1.8763441 4.462366,2.2311828 4.462366Q2.5860217 4.462366,2.8521507 4.295699Q3.1182797 4.129032,3.2607527 3.8440862Q3.403226 3.55914,3.403226 3.2150538Q3.403226 2.8709679,3.2607527 2.5833335Q3.1182797 2.2956991,2.8521507 2.1263442Q2.5860217 1.9569893,2.2311828 1.9569893Q1.8763441 1.9569893,1.6075269 2.1263442Q1.3387097 2.2956991,1.1935483 2.5833335Q1.0483872 2.8709679,1.0483872 3.2150538Q1.0483872 3.55914,1.1935483 3.8440862ZM5.0698924 2.3333335L5.930107 2.3333335L6.4892473 3.9301076Q6.564516 4.134409,6.607527 4.376344Q6.6505375 4.134409,6.725806 3.9301076L7.2849464 2.3333335L8.129032 2.3333335L6.967742 5.129032L6.236559 5.129032L5.0698924 2.3333335ZM10.0161295 4.9327955Q9.688172 4.7365594,9.505377 4.403226Q9.322581 4.069893,9.322581 3.666667Q9.322581 3.2688174,9.510753 2.9301076Q9.698925 2.591398,10.029571 2.3924732Q10.360215 2.1935487,10.768818 2.1935487Q11.17742 2.1935487,11.502688 2.3924732Q11.827957 2.591398,12.008064 2.9274194Q12.188172 3.263441,12.188172 3.666667Q12.188172 3.8010755,12.166667 3.9247313L10.075269 3.9247313Q10.139786 4.1774197,10.319893 4.3306456Q10.5 4.4838715,10.768818 4.4838715Q10.994624 4.4838715,11.172043 4.379032Q11.3494625 4.274194,11.451613 4.107527L12.0161295 4.532258Q11.844087 4.8010755,11.510753 4.965054Q11.17742 5.129032,10.768818 5.129032Q10.344087 5.129032,10.0161295 4.9327955ZM11.456989 3.3817205Q11.392473 3.1397853,11.204302 2.978495Q11.0161295 2.8172045,10.758064 2.8172045Q10.505377 2.8172045,10.319893 2.9731185Q10.134409 3.1290326,10.075269 3.3817205L11.456989 3.3817205ZM13.586021 2.2473118L14.290323 2.2473118L14.290323 2.7795699Q14.365591 2.4731183,14.583334 2.3172042Q14.801075 2.1612902,15.155914 2.1827958L15.155914 2.8655913L15.053763 2.8655913Q14.731183 2.8655913,14.521505 3.0672042Q14.311829 3.2688172,14.311829 3.612903L14.311829 5.0430107L13.586021 5.0430107L13.586021 2.2473118ZM16.908602 3.6720428L16.908602 5L16.182796 5L16.182796 1.0752687L16.908602 1.0752687L16.908602 3.3333335L17.95699 2.204301L18.989246 2.204301L17.672043 3.5053763L18.994623 5L18.032257 5L16.908602 3.6720428ZM20.13441 2.2473118L20.860216 2.2473118L20.860216 5.0430107L20.13441 5.0430107L20.13441 2.2473118ZM20.185486 1.2849462Q20.311829 1.1612902,20.494625 1.1612902Q20.682796 1.1612902,20.806454 1.2849462Q20.930109 1.408602,20.930109 1.5860214Q20.930109 1.7688172,20.806454 1.892473Q20.682796 2.016129,20.494625 2.016129Q20.311829 2.016129,20.185486 1.8897848Q20.059141 1.7634408,20.059141 1.5860214Q20.059141 1.408602,20.185486 1.2849462ZM22.376345 1.0752687L23.102152 1.0752687L23.102152 5L22.376345 5L22.376345 1.0752687ZM24.47312 1.0752687L25.198927 1.0752687L25.198927 5L24.47312 5L24.47312 1.0752687Z" fill="#000"/>
</svg>
<svg x="3" y="3" width="10" height="10" viewBox="0 0 100 100">
<svg xmlns="http://www.w3.org/2000/svg" viewBox="0 0 100 100" width="100" height="100"><defs></defs><g transform="matrix(1,0,0,1,0,0)">
<g>
	<g>
		<path d="M24,62C24,62 24,82 24,82 C24,82 24,86 28,86 C32,86 48,86 48,86 C48,86 52,86 52,82 C52,79.058871 52,62 52,58 Q52,54 48,54 C42,54 44,54 40,54 C36,54 36,58 36,58 C36,58 28,58 28,58 C28,58 24,58 24,62 Z" transform="matrix(2.5,0,0,2.5,-45,-125)" fill="#fefefe" fill-opacity="0" stroke="#000000" stroke-width="2" stroke-linecap="round" stroke-linejoin="round"/>
	</g>
	<g>
		<path d="M28,58C28,58 28,54 28,54 C28,54 34,54 34,54 C34,54 34,58 34,58 " transform="matrix(2.5,0,0,2.5,-45,-125)" fill="#fefefe" fill-opacity="0" stroke="#000000" stroke-width="2" stroke-linejoin="round"/>
	</g>
	<g>
		<path d="M40,58C40,58 48,58 48,58 " transform="matrix(2.5,0,0,2.5,-45,-125)" fill="none" stroke="#000000" stroke-width="2" stroke-linecap="round"/>
	</g>
	<g>
		<path d="M34,67.370947C34,67.370947 34,75.370947 34,75.370947 C34,75.370947 42,71.370947 42,71.370947 C42,71.370947 34,67.370947 34,67.370947 Z" transform="matrix(2.5,0,0,2.5,-45,-123.42736784)" fill="#000000" stroke="#000000" stroke-width="2" stroke-linejoin="round"/>
	</g>
	<g>
		<path d="M-0,0L 100,0 L 100,100 L -0,100 L -0,0 Z" transform="matrix(1,0,0,1,0,0)" fill="#ffffff" fill-opacity="0"/>
	</g>
</g></g></svg>
</svg>
</svg>

</svg>
<svg x="65" y="0" width="65" height="65">
<svg viewBox="0 0 100 100">
<svg xmlns="http://www.w3.org/2000/svg" viewBox="0 0 100 100" width="100" height="100"><defs><linearGradient id="14937830074800692512" x1="-0.49376766372550857" x2="100.86553465330087" y1="-0.6583568849673468" y2="100.70094543205903" gradientTransform="matrix(0.01,0,0,0.01,0,0)"><stop stop-color="#5d3705" /><stop offset="1" stop-color="#ff6565" /></linearGradient></defs><g>
<rect fill="#ffffff" x="0" y="0" width="100" height="100"/>
<g>
	<g>
		<path d="M0,0L 100,0 L 100,100 L 0,100 L 0,0 Z" fill="url('#14937830074800692512')"/>
	</g>
</g></g></svg>
<svg x="18.274195" y="29">
<path d="M1.0967741 30.032255L10.129032 19.387093Q11.225805 18.096771,11.806452 17.032255Q12.387096 15.967739,12.387096 14.999997Q12.387096 13.516127,11.5 12.62903Q10.612904 11.741932,9.064516 11.741932Q7.4838705 11.741932,6.629032 12.693546Q5.7741933 13.645159,5.7741933 15.387094L1.0967741 15.387094Q1.0967741 13.096771,2.1290321 11.322578Q3.1612902 9.548384,5 8.548384Q6.8387094 7.5483837,9.129032 7.5483837Q11.419355 7.5483837,13.225805 8.499998Q15.032257 9.451611,16.048388 11.096771Q17.064516 12.741932,17.064516 14.741933Q17.064516 16.129028,16.629032 17.338707Q16.193548 18.548384,15.096773 19.935482L11.580645 24.516127Q10.483871 25.93548,9.580645 26.580643L17.193548 26.580643L17.193548 30.548384L1.0967741 30.548384L1.0967741 30.032255ZM23.903225 29.854836Q21.903225 28.677416,20.790321 26.677416Q19.677418 24.677416,19.677418 22.25806L19.677418 16.45161Q19.677418 14.032255,20.790321 12.032255Q21.903225 10.032255,23.903225 8.8548355Q25.903225 7.677416,28.45161 7.677416Q30.999998 7.677416,33 8.8548355Q35 10.032255,36.1129 12.032255Q37.225807 14.032255,37.225807 16.45161L37.225807 22.25806Q37.225807 24.677416,36.1129 26.677416Q35 28.677416,33 29.854836Q30.999998 31.032255,28.45161 31.032255Q25.903225 31.032255,23.903225 29.854836ZM25.403225 25.43548Q26.45161 26.838707,28.45161 26.838707Q30.45161 26.838707,31.499998 25.43548Q32.548386 24.032255,32.548386 21.741932L32.548386 16.999996Q32.548386 14.516127,31.532257 13.193546Q30.516129 11.870964,28.45161 11.870964Q26.387094 11.870964,25.370966 13.193546Q24.354837 14.516127,24.354837 16.999996L24.354837 21.741932Q24.354837 24.032255,25.403225 25.43548ZM41.45161 13.4193535L37.548386 13.4193535L37.548386 12.935482L41.45161 8.3870945L45.96774 8.3870945L45.96774 30.96774L41.45161 30.96774L41.45161 13.4193535ZM51.32258 30.1129Q49.54838 29.25806,48.59677 27.79032Q47.645157 26.322577,47.645157 24.483868Q47.645157 22.45161,48.532253 21.032255Q49.41935 19.6129,50.93548 18.80645Q49.645157 18.032255,48.96774 16.80645Q48.290318 15.580643,48.290318 13.967739Q48.290318 12.12903,49.12903 10.677416Q49.96774 9.225803,51.580643 8.3870945Q53.193542 7.5483837,55.451607 7.5483837Q57.741932 7.5483837,59.354836 8.3870945Q60.96774 9.225803,61.790318 10.677416Q62.6129 12.12903,62.6129 13.967739Q62.6129 15.612901,61.93548 16.838707Q61.25806 18.064514,59.96774 18.80645Q61.483868 19.645157,62.370964 21.048384Q63.25806 22.45161,63.25806 24.483868Q63.25806 26.322577,62.306446 27.79032Q61.354836 29.25806,59.59677 30.1129Q57.838707 30.96774,55.451607 30.96774Q53.09677 30.96774,51.32258 30.1129ZM53.064514 26.145159Q54.032253 27.096771,55.451607 27.096771Q56.870964 27.096771,57.838707 26.145159Q58.80645 25.193544,58.80645 23.903223Q58.80645 22.483868,57.854836 21.564514Q56.90322 20.645157,55.451607 20.645157Q53.999996 20.645157,53.04838 21.564514Q52.09677 22.483868,52.09677 23.903223Q52.09677 25.193544,53.064514 26.145159ZM53.40322 16.241932Q54.193542 17.064514,55.451607 17.064514Q56.709675 17.064514,57.516125 16.225803Q58.32258 15.387094,58.32258 14.096771Q58.32258 12.93548,57.516125 12.177416Q56.709675 11.419352,55.451607 11.419352Q54.193542 11.419352,53.40322 12.209675Q52.6129 12.999998,52.6129 14.161287Q52.6129 15.419352,53.40322 16.241932Z" fill="#000"/>
</svg>
<svg x="42.475807" y="10">
<path d="M0.53763443 1.3870969L1.7526882 1.3817205Q2.392473 1.3763442,2.7526882 1.6774194Q3.112903 1.9784946,3.112903 2.526882Q3.112903 2.967742,2.8790321 3.2419355Q2.6451612 3.5161293,2.2096775 3.6129034L3.2634408 5.1505375L2.376344 5.1505375L1.5752687 3.9569893Q1.5 3.8387098,1.4301075 3.6827958L1.2903225 3.6827958L1.2903225 5.1505375L0.53763443 5.1505375L0.53763443 1.3870969ZM1.7096775 3.0053763Q2.016129 3.0053763,2.1827958 2.8844087Q2.3494623 2.7634408,2.3494623 2.5322583Q2.3494623 2.3064518,2.1827958 2.185484Q2.016129 2.0645163,1.7096775 2.0645163L1.2903225 2.0645163L1.2903225 3.0053763L1.7096775 3.0053763ZM4.494624 1.3978496L5.247312 1.3978496L5.247312 5.16129L4.494624 5.16129L4.494624 1.3978496ZM7.502689 4.9005375Q7.053764 4.639785,6.7956996 4.193548Q6.537635 3.7473118,6.537635 3.2150538Q6.537635 2.6827958,6.7956996 2.2338712Q7.053764 1.7849464,7.502689 1.5215056Q7.9516134 1.2580647,8.5 1.2580647Q9.048388 1.2580647,9.494624 1.5215056Q9.940861 1.7849464,10.196238 2.2338712Q10.451613 2.6827958,10.451613 3.2150538Q10.451613 3.7473118,10.196238 4.193548Q9.940861 4.639785,9.494624 4.9005375Q9.048388 5.16129,8.5 5.16129Q7.9516134 5.16129,7.502689 4.9005375ZM7.462366 3.8440862Q7.6075277 4.129032,7.8763447 4.295699Q8.145162 4.462366,8.5 4.462366Q8.854839 4.462366,9.120968 4.295699Q9.387097 4.129032,9.529571 3.8440862Q9.672044 3.55914,9.672044 3.2150538Q9.672044 2.8709679,9.529571 2.5833335Q9.387097 2.2956991,9.120968 2.1263442Q8.854839 1.9569893,8.5 1.9569893Q8.145162 1.9569893,7.8763447 2.1263442Q7.6075277 2.2956991,7.462366 2.5833335Q7.317205 2.8709679,7.317205 3.2150538Q7.317205 3.55914,7.462366 3.8440862ZM12.73656 2.075269L11.661291 2.075269L11.661291 1.3978496L14.564516 1.3978496L14.564516 2.075269L13.489248 2.075269L13.489248 5.16129L12.73656 5.16129L12.73656 2.075269Z" fill="#000"/>
</svg>
<svg x="37.14785" y="82">
<path d="M1.233871 4.9005375Q0.7849462 4.639785,0.52688175 4.193548Q0.26881722 3.7473118,0.26881722 3.2150538Q0.26881722 2.6827958,0.52688175 2.2338712Q0.7849462 1.7849464,1.233871 1.5215056Q1.6827956 1.2580647,2.2311828 1.2580647Q2.77957 1.2580647,3.2258065 1.5215056Q3.672043 1.7849464,3.9274194 2.2338712Q4.1827955 2.6827958,4.1827955 3.2150538Q4.1827955 3.7473118,3.9274194 4.193548Q3.672043 4.639785,3.2258065 4.9005375Q2.77957 5.16129,2.2311828 5.16129Q1.6827956 5.16129,1.233871 4.9005375ZM1.1935483 3.8440862Q1.3387097 4.129032,1.6075269 4.295699Q1.8763441 4.462366,2.2311828 4.462366Q2.5860217 4.462366,2.8521507 4.295699Q3.1182797 4.129032,3.2607527 3.8440862Q3.403226 3.55914,3.403226 3.2150538Q3.403226 2.8709679,3.2607527 2.5833335Q3.1182797 2.2956991,2.8521507 2.1263442Q2.5860217 1.9569893,2.2311828 1.9569893Q1.8763441 1.9569893,1.6075269 2.1263442Q1.3387097 2.2956991,1.1935483 2.5833335Q1.0483872 2.8709679,1.0483872 3.2150538Q1.0483872 3.55914,1.1935483 3.8440862ZM5.0698924 2.3333335L5.930107 2.3333335L6.4892473 3.9301076Q6.564516 4.134409,6.607527 4.376344Q6.6505375 4.134409,6.725806 3.9301076L7.2849464 2.3333335L8.129032 2.3333335L6.967742 5.129032L6.236559 5.129032L5.0698924 2.3333335ZM10.0161295 4.9327955Q9.688172 4.7365594,9.505377 4.403226Q9.322581 4.069893,9.322581 3.666667Q9.322581 3.2688174,9.510753 2.9301076Q9.698925 2.591398,10.029571 2.3924732Q10.360215 2.1935487,10.768818 2.1935487Q11.17742 2.1935487,11.502688 2.3924732Q11.827957 2.591398,12.008064 2.9274194Q12.188172 3.263441,12.188172 3.666667Q12.188172 3.8010755,12.166667 3.9247313L10.075269 3.9247313Q10.139786 4.1774197,10.319893 4.3306456Q10.5 4.4838715,10.768818 4.4838715Q10.994624 4.4838715,11.172043 4.379032Q11.3494625 4.274194,11.451613 4.107527L12.0161295 4.532258Q11.844087 4.8010755,11.510753 4.965054Q11.17742 5.129032,10.768818 5.129032Q10.344087 5.129032,10.0161295 4.9327955ZM11.456989 3.3817205Q11.392473 3.1397853,11.204302 2.978495Q11.0161295 2.8172045,10.758064 2.8172045Q10.505377 2.8172045,10.319893 2.9731185Q10.134409 3.1290326,10.075269 3.3817205L11.456989 3.3817205ZM13.586021 2.2473118L14.290323 2.2473118L14.290323 2.7795699Q14.365591 2.4731183,14.583334 2.3172042Q14.801075 2.1612902,15.155914 2.1827958L15.155914 2.8655913L15.053763 2.8655913Q14.731183 2.8655913,14.521505 3.0672042Q14.311829 3.2688172,14.311829 3.612903L14.311829 5.0430107L13.586021 5.0430107L13.586021 2.2473118ZM16.908602 3.6720428L16.908602 5L16.182796 5L16.182796 1.0752687L16.908602 1.0752687L16.908602 3.3333335L17.95699 2.204301L18.989246 2.204301L17.672043 3.5053763L18.994623 5L18.032257 5L16.908602 3.6720428ZM20.13441 2.2473118L20.860216 2.2473118L20.860216 5.0430107L20.13441 5.0430107L20.13441 2.2473118ZM20.185486 1.2849462Q20.311829 1.1612902,20.494625 1.1612902Q20.682796 1.1612902,20.806454 1.2849462Q20.930109 1.408602,20.930109 1.5860214Q20.930109 1.7688172,20.806454 1.892473Q20.682796 2.016129,20.494625 2.016129Q20.311829 2.016129,20.185486 1.8897848Q20.059141 1.7634408,20.059141 1.5860214Q20.059141 1.408602,20.185486 1.2849462ZM22.376345 1.0752687L23.102152 1.0752687L23.102152 5L22.376345 5L22.376345 1.0752687ZM24.47312 1.0752687L25.198927 1.0752687L25.198927 5L24.47312 5L24.47312 1.0752687Z" fill="#000"/>
</svg>
<svg x="3" y="3" width="10" height="10" viewBox="0 0 100 100">
<svg xmlns="http://www.w3.org/2000/svg" viewBox="0 0 100 100" width="100" height="100"><defs></defs><g transform="matrix(1,0,0,1,0,0)">
<g>
	<g>
		<path d="M24,62C24,62 24,82 24,82 C24,82 24,86 28,86 C32,86 48,86 48,86 C48,86 52,86 52,82 C52,79.058871 52,62 52,58 Q52,54 48,54 C42,54 44,54 40,54 C36,54 36,58 36,58 C36,58 28,58 28,58 C28,58 24,58 24,62 Z" transform="matrix(2.5,0,0,2.5,-45,-125)" fill="#fefefe" fill-opacity="0" stroke="#000000" stroke-width="2" stroke-linecap="round" stroke-linejoin="round"/>
	</g>
	<g>
		<path d="M28,58C28,58 28,54 28,54 C28,54 34,54 34,54 C34,54 34,58 34,58 " transform="matrix(2.5,0,0,2.5,-45,-125)" fill="#fefefe" fill-opacity="0" stroke="#000000" stroke-width="2" stroke-linejoin="round"/>
	</g>
	<g>
		<path d="M40,58C40,58 48,58 48,58 " transform="matrix(2.5,0,0,2.5,-45,-125)" fill="none" stroke="#000000" stroke-width="2" stroke-linecap="round"/>
	</g>
	<g>
		<path d="M34,67.370947C34,67.370947 34,75.370947 34,75.370947 C34,75.370947 42,71.370947 42,71.370947 C42,71.370947 34,67.370947 34,67.370947 Z" transform="matrix(2.5,0,0,2.5,-45,-123.42736784)" fill="#000000" stroke="#000000" stroke-width="2" stroke-linejoin="round"/>
	</g>
	<g>
		<path d="M-0,0L 100,0 L 100,100 L -0,100 L -0,0 Z" transform="matrix(1,0,0,1,0,0)" fill="#ffffff" fill-opacity="0"/>
	</g>
</g></g></svg>
</svg>
</svg>

</svg>
<svg x="130" y="0" width="65" height="65">
<svg viewBox="0 0 100 100">
<svg xmlns="http://www.w3.org/2000/svg" viewBox="0 0 100 100" width="100" height="100"><defs><linearGradient id="14937830074800692512" x1="-0.49376766372550857" x2="100.86553465330087" y1="-0.6583568849673468" y2="100.70094543205903" gradientTransform="matrix(0.01,0,0,0.01,0,0)"><stop stop-color="#5d3705" /><stop offset="1" stop-color="#ff6565" /></linearGradient></defs><g>
<rect fill="#ffffff" x="0" y="0" width="100" height="100"/>
<g>
	<g>
		<path d="M0,0L 100,0 L 100,100 L 0,100 L 0,0 Z" fill="url('#14937830074800692512')"/>
	</g>
</g></g></svg>
<svg x="18.274195" y="29">
<path d="M1.0967741 30.032255L10.129032 19.387093Q11.225805 18.096771,11.806452 17.032255Q12.387096 15.967739,12.387096 14.999997Q12.387096 13.516127,11.5 12.62903Q10.612904 11.741932,9.064516 11.741932Q7.4838705 11.741932,6.629032 12.693546Q5.7741933 13.645159,5.7741933 15.387094L1.0967741 15.387094Q1.0967741 13.096771,2.1290321 11.322578Q3.1612902 9.548384,5 8.548384Q6.8387094 7.5483837,9.129032 7.5483837Q11.419355 7.5483837,13.225805 8.499998Q15.032257 9.451611,16.048388 11.096771Q17.064516 12.741932,17.064516 14.741933Q17.064516 16.129028,16.629032 17.338707Q16.193548 18.548384,15.096773 19.935482L11.580645 24.516127Q10.483871 25.93548,9.580645 26.580643L17.193548 26.580643L17.193548 30.548384L1.0967741 30.548384L1.0967741 30.032255ZM23.903225 29.854836Q21.903225 28.677416,20.790321 26.677416Q19.677418 24.677416,19.677418 22.25806L19.677418 16.45161Q19.677418 14.032255,20.790321 12.032255Q21.903225 10.032255,23.903225 8.8548355Q25.903225 7.677416,28.45161 7.677416Q30.999998 7.677416,33 8.8548355Q35 10.032255,36.1129 12.032255Q37.225807 14.032255,37.225807 16.45161L37.225807 22.25806Q37.225807 24.677416,36.1129 26.677416Q35 28.677416,33 29.854836Q30.999998 31.032255,28.45161 31.032255Q25.903225 31.032255,23.903225 29.854836ZM25.403225 25.43548Q26.45161 26.838707,28.45161 26.838707Q30.45161 26.838707,31.499998 25.43548Q32.548386 24.032255,32.548386 21.741932L32.548386 16.999996Q32.548386 14.516127,31.532257 13.193546Q30.516129 11.870964,28.45161 11.870964Q26.387094 11.870964,25.370966 13.193546Q24.354837 14.516127,24.354837 16.999996L24.354837 21.741932Q24.354837 24.032255,25.403225 25.43548ZM41.45161 13.4193535L37.548386 13.4193535L37.548386 12.935482L41.45161 8.3870945L45.96774 8.3870945L45.96774 30.96774L41.45161 30.96774L41.45161 13.4193535ZM51.32258 30.1129Q49.54838 29.25806,48.59677 27.79032Q47.645157 26.322577,47.645157 24.483868Q47.645157 22.45161,48.532253 21.032255Q49.41935 19.6129,50.93548 18.80645Q49.645157 18.032255,48.96774 16.80645Q48.290318 15.580643,48.290318 13.967739Q48.290318 12.12903,49.12903 10.677416Q49.96774 9.225803,51.580643 8.3870945Q53.193542 7.5483837,55.451607 7.5483837Q57.741932 7.5483837,59.354836 8.3870945Q60.96774 9.225803,61.790318 10.677416Q62.6129 12.12903,62.6129 13.967739Q62.6129 15.612901,61.93548 16.838707Q61.25806 18.064514,59.96774 18.80645Q61.483868 19.645157,62.370964 21.048384Q63.25806 22.45161,63.25806 24.483868Q63.25806 26.322577,62.306446 27.79032Q61.354836 29.25806,59.59677 30.1129Q57.838707 30.96774,55.451607 30.96774Q53.09677 30.96774,51.32258 30.1129ZM53.064514 26.145159Q54.032253 27.096771,55.451607 27.096771Q56.870964 27.096771,57.838707 26.145159Q58.80645 25.193544,58.80645 23.903223Q58.80645 22.483868,57.854836 21.564514Q56.90322 20.645157,55.451607 20.645157Q53.999996 20.645157,53.04838 21.564514Q52.09677 22.483868,52.09677 23.903223Q52.09677 25.193544,53.064514 26.145159ZM53.40322 16.241932Q54.193542 17.064514,55.451607 17.064514Q56.709675 17.064514,57.516125 16.225803Q58.32258 15.387094,58.32258 14.096771Q58.32258 12.93548,57.516125 12.177416Q56.709675 11.419352,55.451607 11.419352Q54.193542 11.419352,53.40322 12.209675Q52.6129 12.999998,52.6129 14.161287Q52.6129 15.419352,53.40322 16.241932Z" fill="#000"/>
</svg>
<svg x="42.475807" y="10">
<path d="M0.53763443 1.3870969L1.7526882 1.3817205Q2.392473 1.3763442,2.7526882 1.6774194Q3.112903 1.9784946,3.112903 2.526882Q3.112903 2.967742,2.8790321 3.2419355Q2.6451612 3.5161293,2.2096775 3.6129034L3.2634408 5.1505375L2.376344 5.1505375L1.5752687 3.9569893Q1.5 3.8387098,1.4301075 3.6827958L1.2903225 3.6827958L1.2903225 5.1505375L0.53763443 5.1505375L0.53763443 1.3870969ZM1.7096775 3.0053763Q2.016129 3.0053763,2.1827958 2.8844087Q2.3494623 2.7634408,2.3494623 2.5322583Q2.3494623 2.3064518,2.1827958 2.185484Q2.016129 2.0645163,1.7096775 2.0645163L1.2903225 2.0645163L1.2903225 3.0053763L1.7096775 3.0053763ZM4.494624 1.3978496L5.247312 1.3978496L5.247312 5.16129L4.494624 5.16129L4.494624 1.3978496ZM7.502689 4.9005375Q7.053764 4.639785,6.7956996 4.193548Q6.537635 3.7473118,6.537635 3.2150538Q6.537635 2.6827958,6.7956996 2.2338712Q7.053764 1.7849464,7.502689 1.5215056Q7.9516134 1.2580647,8.5 1.2580647Q9.048388 1.2580647,9.494624 1.5215056Q9.940861 1.7849464,10.196238 2.2338712Q10.451613 2.6827958,10.451613 3.2150538Q10.451613 3.7473118,10.196238 4.193548Q9.940861 4.639785,9.494624 4.9005375Q9.048388 5.16129,8.5 5.16129Q7.9516134 5.16129,7.502689 4.9005375ZM7.462366 3.8440862Q7.6075277 4.129032,7.8763447 4.295699Q8.145162 4.462366,8.5 4.462366Q8.854839 4.462366,9.120968 4.295699Q9.387097 4.129032,9.529571 3.8440862Q9.672044 3.55914,9.672044 3.2150538Q9.672044 2.8709679,9.529571 2.5833335Q9.387097 2.2956991,9.120968 2.1263442Q8.854839 1.9569893,8.5 1.9569893Q8.145162 1.9569893,7.8763447 2.1263442Q7.6075277 2.2956991,7.462366 2.5833335Q7.317205 2.8709679,7.317205 3.2150538Q7.317205 3.55914,7.462366 3.8440862ZM12.73656 2.075269L11.661291 2.075269L11.661291 1.3978496L14.564516 1.3978496L14.564516 2.075269L13.489248 2.075269L13.489248 5.16129L12.73656 5.16129L12.73656 2.075269Z" fill="#000"/>
</svg>
<svg x="37.14785" y="82">
<path d="M1.233871 4.9005375Q0.7849462 4.639785,0.52688175 4.193548Q0.26881722 3.7473118,0.26881722 3.2150538Q0.26881722 2.6827958,0.52688175 2.2338712Q0.7849462 1.7849464,1.233871 1.5215056Q1.6827956 1.2580647,2.2311828 1.2580647Q2.77957 1.2580647,3.2258065 1.5215056Q3.672043 1.7849464,3.9274194 2.2338712Q4.1827955 2.6827958,4.1827955 3.2150538Q4.1827955 3.7473118,3.9274194 4.193548Q3.672043 4.639785,3.2258065 4.9005375Q2.77957 5.16129,2.2311828 5.16129Q1.6827956 5.16129,1.233871 4.9005375ZM1.1935483 3.8440862Q1.3387097 4.129032,1.6075269 4.295699Q1.8763441 4.462366,2.2311828 4.462366Q2.5860217 4.462366,2.8521507 4.295699Q3.1182797 4.129032,3.2607527 3.8440862Q3.403226 3.55914,3.403226 3.2150538Q3.403226 2.8709679,3.2607527 2.5833335Q3.1182797 2.2956991,2.8521507 2.1263442Q2.5860217 1.9569893,2.2311828 1.9569893Q1.8763441 1.9569893,1.6075269 2.1263442Q1.3387097 2.2956991,1.1935483 2.5833335Q1.0483872 2.8709679,1.0483872 3.2150538Q1.0483872 3.55914,1.1935483 3.8440862ZM5.0698924 2.3333335L5.930107 2.3333335L6.4892473 3.9301076Q6.564516 4.134409,6.607527 4.376344Q6.6505375 4.134409,6.725806 3.9301076L7.2849464 2.3333335L8.129032 2.3333335L6.967742 5.129032L6.236559 5.129032L5.0698924 2.3333335ZM10.0161295 4.9327955Q9.688172 4.7365594,9.505377 4.403226Q9.322581 4.069893,9.322581 3.666667Q9.322581 3.2688174,9.510753 2.9301076Q9.698925 2.591398,10.029571 2.3924732Q10.360215 2.1935487,10.768818 2.1935487Q11.17742 2.1935487,11.502688 2.3924732Q11.827957 2.591398,12.008064 2.9274194Q12.188172 3.263441,12.188172 3.666667Q12.188172 3.8010755,12.166667 3.9247313L10.075269 3.9247313Q10.139786 4.1774197,10.319893 4.3306456Q10.5 4.4838715,10.768818 4.4838715Q10.994624 4.4838715,11.172043 4.379032Q11.3494625 4.274194,11.451613 4.107527L12.0161295 4.532258Q11.844087 4.8010755,11.510753 4.965054Q11.17742 5.129032,10.768818 5.129032Q10.344087 5.129032,10.0161295 4.9327955ZM11.456989 3.3817205Q11.392473 3.1397853,11.204302 2.978495Q11.0161295 2.8172045,10.758064 2.8172045Q10.505377 2.8172045,10.319893 2.9731185Q10.134409 3.1290326,10.075269 3.3817205L11.456989 3.3817205ZM13.586021 2.2473118L14.290323 2.2473118L14.290323 2.7795699Q14.365591 2.4731183,14.583334 2.3172042Q14.801075 2.1612902,15.155914 2.1827958L15.155914 2.8655913L15.053763 2.8655913Q14.731183 2.8655913,14.521505 3.0672042Q14.311829 3.2688172,14.311829 3.612903L14.311829 5.0430107L13.586021 5.0430107L13.586021 2.2473118ZM16.908602 3.6720428L16.908602 5L16.182796 5L16.182796 1.0752687L16.908602 1.0752687L16.908602 3.3333335L17.95699 2.204301L18.989246 2.204301L17.672043 3.5053763L18.994623 5L18.032257 5L16.908602 3.6720428ZM20.13441 2.2473118L20.860216 2.2473118L20.860216 5.0430107L20.13441 5.0430107L20.13441 2.2473118ZM20.185486 1.2849462Q20.311829 1.1612902,20.494625 1.1612902Q20.682796 1.1612902,20.806454 1.2849462Q20.930109 1.408602,20.930109 1.5860214Q20.930109 1.7688172,20.806454 1.892473Q20.682796 2.016129,20.494625 2.016129Q20.311829 2.016129,20.185486 1.8897848Q20.059141 1.7634408,20.059141 1.5860214Q20.059141 1.408602,20.185486 1.2849462ZM22.376345 1.0752687L23.102152 1.0752687L23.102152 5L22.376345 5L22.376345 1.0752687ZM24.47312 1.0752687L25.198927 1.0752687L25.198927 5L24.47312 5L24.47312 1.0752687Z" fill="#000"/>
</svg>
<svg x="3" y="3" width="10" height="10" viewBox="0 0 100 100">
<svg xmlns="http://www.w3.org/2000/svg" viewBox="0 0 100 100" width="100" height="100"><defs></defs><g transform="matrix(1,0,0,1,0,0)">
<g>
	<g>
		<path d="M24,62C24,62 24,82 24,82 C24,82 24,86 28,86 C32,86 48,86 48,86 C48,86 52,86 52,82 C52,79.058871 52,62 52,58 Q52,54 48,54 C42,54 44,54 40,54 C36,54 36,58 36,58 C36,58 28,58 28,58 C28,58 24,58 24,62 Z" transform="matrix(2.5,0,0,2.5,-45,-125)" fill="#fefefe" fill-opacity="0" stroke="#000000" stroke-width="2" stroke-linecap="round" stroke-linejoin="round"/>
	</g>
	<g>
		<path d="M28,58C28,58 28,54 28,54 C28,54 34,54 34,54 C34,54 34,58 34,58 " transform="matrix(2.5,0,0,2.5,-45,-125)" fill="#fefefe" fill-opacity="0" stroke="#000000" stroke-width="2" stroke-linejoin="round"/>
	</g>
	<g>
		<path d="M40,58C40,58 48,58 48,58 " transform="matrix(2.5,0,0,2.5,-45,-125)" fill="none" stroke="#000000" stroke-width="2" stroke-linecap="round"/>
	</g>
	<g>
		<path d="M34,67.370947C34,67.370947 34,75.370947 34,75.370947 C34,75.370947 42,71.370947 42,71.370947 C42,71.370947 34,67.370947 34,67.370947 Z" transform="matrix(2.5,0,0,2.5,-45,-123.42736784)" fill="#000000" stroke="#000000" stroke-width="2" stroke-linejoin="round"/>
	</g>
	<g>
		<path d="M-0,0L 100,0 L 100,100 L -0,100 L -0,0 Z" transform="matrix(1,0,0,1,0,0)" fill="#ffffff" fill-opacity="0"/>
	</g>
</g></g></svg>
</svg>
</svg>

</svg>
</svg>

