<svg xmlns="http://www.w3.org/2000/svg" viewBox="0 0 100 100" width="100" height="100"><defs></defs><g transform="matrix(1,0,0,1,0,0)">
<g>
	<g>
		<path d="M24,62C24,62 24,82 24,82 C24,82 24,86 28,86 C32,86 48,86 48,86 C48,86 52,86 52,82 C52,79.058871 52,62 52,58 Q52,54 48,54 C42,54 44,54 40,54 C36,54 36,58 36,58 C36,58 28,58 28,58 C28,58 24,58 24,62 Z" transform="matrix(2.5,0,0,2.5,-45,-125)" fill="#fefefe" fill-opacity="0" stroke="#000000" stroke-width="2" stroke-linecap="round" stroke-linejoin="round"/>
	</g>
	<g>
		<path d="M28,58C28,58 28,54 28,54 C28,54 34,54 34,54 C34,54 34,58 34,58 " transform="matrix(2.5,0,0,2.5,-45,-125)" fill="#fefefe" fill-opacity="0" stroke="#000000" stroke-width="2" stroke-linejoin="round"/>
	</g>
	<g>
		<path d="M40,58C40,58 48,58 48,58 " transform="matrix(2.5,0,0,2.5,-45,-125)" fill="none" stroke="#000000" stroke-width="2" stroke-linecap="round"/>
	</g>
	<g>
		<path d="M34,67.370947C34,67.370947 34,75.370947 34,75.370947 C34,75.370947 42,71.370947 42,71.370947 C42,71.370947 34,67.370947 34,67.370947 Z" transform="matrix(2.5,0,0,2.5,-45,-123.42736784)" fill="#000000" stroke="#000000" stroke-width="2" stroke-linejoin="round"/>
	</g>
	<g>
		<path d="M-0,0L 100,0 L 100,100 L -0,100 L -0,0 Z" transform="matrix(1,0,0,1,0,0)" fill="#ffffff" fill-opacity="0"/>
	</g>
</g></g></svg>